<svg xmlns="http://www.w3.org/2000/svg" xmlns:xlink="http://www.w3.org/1999/xlink" viewBox="0 0 958 400"><defs><style>.a{fill:none;}.b{fill:#bd0707;}.c{clip-path:url(#a);}.d{fill:#fff;}.e{clip-path:url(#b);}.f{clip-path:url(#c);}.g{clip-path:url(#d);}</style><clipPath id="a"><rect class="a" x="388" y="323" width="108" height="77"/></clipPath><clipPath id="b"><rect class="a" x="790" y="300" width="168" height="100"/></clipPath><clipPath id="c"><rect class="a" x="631" width="222" height="140"/></clipPath><clipPath id="d"><rect class="a" width="105" height="120"/></clipPath></defs><rect class="b" width="958" height="400"/><g class="c"><path class="d" d="M573.36,562.82a298.34,298.34,0,0,0-67.75-58.17c-44.1-28-85.05-75.85-106.85-125-1.08-2.42-3.54-4.81-5.5-5.32s-2.68,1-1.6,3.46C415.06,430.54,459.05,482,506.46,512c48.76,30.92,83.71,71.78,106.82,124.9,1.06,2.42,3.51,4.81,5.48,5.36s2.72-1,1.67-3.4A300,300,0,0,0,573.36,562.82Z"/><path class="d" d="M417.94,355.35c23.41,52.71,67.4,104.13,114.8,134.19,48.77,30.92,83.72,71.78,106.83,124.89,1,2.42,3.5,4.82,5.48,5.36s2.72-1,1.67-3.39A292.19,292.19,0,0,0,531.9,482.16c-44.1-28-85-75.84-106.85-125-1.08-2.43-3.55-4.81-5.5-5.32S416.87,352.93,417.94,355.35Z"/><path class="d" d="M444.23,332.87C467.64,385.58,511.63,437,559,467.06,607.79,498,642.74,538.82,665.85,592c1.06,2.42,3.51,4.82,5.48,5.36s2.72-1,1.67-3.39A292,292,0,0,0,558.19,459.68c-44.11-28-85.05-75.84-106.86-125-1.08-2.42-3.54-4.8-5.5-5.31S443.15,330.44,444.23,332.87Z"/></g><g class="e"><path class="d" d="M856.2,367a298.85,298.85,0,0,0,54.63-70.64c25.67-45.48,71.39-88.82,119.32-113.11,2.37-1.2,4.62-3.78,5-5.76s-1.17-2.63-3.54-1.43C980.2,202.09,931.1,248.65,903.5,297.54c-28.38,50.28-67.39,87.27-119.26,113.08-2.36,1.17-4.63,3.74-5.07,5.74s1.12,2.67,3.48,1.5A300.3,300.3,0,0,0,856.2,367Z"/><path class="d" d="M1055.44,201.12C1004,227.2,954.9,273.76,927.3,322.64,898.92,372.93,859.9,409.92,808,435.72c-2.36,1.17-4.63,3.74-5.07,5.74s1.12,2.67,3.47,1.5c27.87-13.87,52.29-30.73,73.55-50.9a298.68,298.68,0,0,0,54.64-70.64C960.29,276,1006,232.6,1054,208.31c2.37-1.2,4.62-3.78,5-5.77S1057.81,199.92,1055.44,201.12Z"/><path class="d" d="M1079.24,226.22C1027.8,252.3,978.7,298.86,951.1,347.74,922.73,398,883.72,435,831.84,460.82c-2.36,1.17-4.63,3.75-5.07,5.74s1.11,2.67,3.47,1.5a300.17,300.17,0,0,0,73.56-50.9,298.35,298.35,0,0,0,54.62-70.64c25.68-45.47,71.4-88.82,119.33-113.11,2.36-1.2,4.62-3.78,5-5.76S1081.61,225,1079.24,226.22Z"/></g><g class="f"><path class="d" d="M713.2,60.24A298.64,298.64,0,0,0,767.83-10.4c25.67-45.47,71.39-88.82,119.32-113.1,2.37-1.21,4.62-3.79,5-5.77s-1.17-2.62-3.54-1.42C837.2-104.62,788.1-58.06,760.51-9.17,732.12,41.11,693.11,78.1,641.24,103.9c-2.36,1.18-4.63,3.75-5.07,5.75s1.12,2.67,3.48,1.49A300,300,0,0,0,713.2,60.24Z"/><path class="d" d="M912.44-105.59C861-79.52,811.9-32.95,784.3,15.93,755.92,66.22,716.9,103.2,665,129c-2.36,1.18-4.63,3.75-5.07,5.75s1.11,2.67,3.47,1.49A299.81,299.81,0,0,0,737,85.35a298.88,298.88,0,0,0,54.64-70.64C817.29-30.77,863-74.11,911-98.4c2.37-1.21,4.62-3.79,5-5.77S914.81-106.79,912.44-105.59Z"/><path class="d" d="M936.24-80.49C884.8-54.41,835.7-7.85,808.1,41,779.73,91.31,740.72,128.3,688.84,154.1c-2.36,1.18-4.63,3.75-5.07,5.75s1.11,2.67,3.47,1.49a299.87,299.87,0,0,0,73.56-50.89,298.55,298.55,0,0,0,54.62-70.64C841.1-5.67,886.82-49,934.75-73.3c2.36-1.21,4.62-3.79,5-5.77S938.61-81.69,936.24-80.49Z"/></g><g class="g"><path class="d" d="M-6.8,32.24A298.64,298.64,0,0,0,47.83-38.4c25.67-45.47,71.39-88.82,119.32-113.1,2.37-1.21,4.62-3.79,5-5.77s-1.17-2.62-3.54-1.42C117.2-132.62,68.1-86.06,40.5-37.17,12.12,13.11-26.89,50.1-78.76,75.9c-2.36,1.18-4.63,3.75-5.07,5.75s1.12,2.66,3.48,1.49A299.76,299.76,0,0,0-6.8,32.24Z"/><path class="d" d="M192.44-133.59C141-107.52,91.9-60.95,64.3-12.07,35.92,38.22-3.1,75.2-55,101c-2.36,1.18-4.63,3.75-5.07,5.75s1.11,2.67,3.47,1.49A299.81,299.81,0,0,0,17,57.35,298.62,298.62,0,0,0,71.63-13.29C97.29-58.77,143-102.11,191-126.4c2.37-1.21,4.62-3.79,5-5.77S194.81-134.79,192.44-133.59Z"/><path class="d" d="M216.24-108.49C164.8-82.41,115.7-35.85,88.1,13,59.73,63.31,20.72,100.3-31.16,126.1c-2.36,1.18-4.63,3.75-5.07,5.75s1.11,2.67,3.47,1.49A299.87,299.87,0,0,0,40.8,82.45,298.55,298.55,0,0,0,95.42,11.81C121.1-33.67,166.82-77,214.75-101.3c2.37-1.21,4.62-3.79,5-5.77S218.61-109.69,216.24-108.49Z"/></g></svg>